<?xml version="1.0" standalone="no"?>
<!DOCTYPE svg PUBLIC "-//W3C//DTD SVG 20010904//EN"
 "http://www.w3.org/TR/2001/REC-SVG-20010904/DTD/svg10.dtd">
<svg version="1.0" xmlns="http://www.w3.org/2000/svg"
 width="225.000000pt" height="225.000000pt" viewBox="0 0 225.000000 225.000000"
 preserveAspectRatio="xMidYMid meet">
<metadata>
Created by potrace 1.10, written by Peter Selinger 2001-2011
</metadata>
<g transform="translate(0.000000,225.000000) scale(0.100000,-0.100000)"
fill="#000000" stroke="none">
<path d="M1007 1570 c-77 -20 -169 -89 -205 -155 -11 -20 -11 -20 -12 0 0 26
45 105 71 122 10 8 19 17 19 21 0 4 -74 7 -165 7 l-165 0 0 -57 0 -58 96 0 95
0 -3 -169 c-3 -149 -5 -171 -22 -190 -33 -37 -112 -23 -152 26 -10 11 -19 4
-50 -38 l-37 -51 24 -20 c85 -69 236 -80 301 -22 15 14 14 19 -10 67 -23 44
-27 63 -27 137 0 93 17 137 75 203 49 56 163 96 235 83 56 -11 49 -50 -31
-170 l-66 -98 12 -44 c7 -24 16 -44 21 -44 5 0 24 8 44 17 38 18 35 11 75 173
16 64 28 90 46 103 31 23 44 14 85 -58 35 -61 39 -140 11 -197 -25 -48 -2 -39
33 13 38 58 46 86 46 155 0 102 -49 182 -137 223 -52 25 -151 35 -207 21z
m133 -33 c25 -7 51 -16 59 -21 10 -7 12 -6 6 4 -5 9 -4 11 4 6 7 -5 9 -16 5
-29 -6 -20 -6 -20 10 -4 19 19 31 23 21 7 -3 -5 5 -15 19 -22 15 -6 26 -16 25
-22 -3 -27 2 -47 10 -41 8 4 8 -18 2 -54 -1 -2 -8 2 -16 9 -9 7 -14 19 -11 27
7 18 -4 44 -15 37 -5 -3 -6 -10 -3 -16 4 -6 -5 -3 -19 8 -15 10 -27 23 -27 28
0 4 -12 1 -26 -9 -15 -9 -23 -12 -20 -6 5 7 1 9 -8 5 -9 -3 -13 -11 -9 -17 3
-5 1 -7 -5 -4 -5 4 -8 16 -5 27 3 12 -1 22 -11 26 -9 3 -13 11 -9 17 4 6 0 8
-10 4 -10 -4 -17 -2 -17 4 0 6 -7 8 -16 5 -10 -4 -13 -2 -8 6 5 8 2 9 -12 3
-10 -4 -41 -9 -69 -10 -38 -3 -45 -1 -32 7 10 5 29 7 43 4 17 -5 29 0 41 14
20 23 39 24 103 7z m-347 -14 c2 -5 -3 -24 -12 -44 l-17 -37 -21 24 c-19 21
-30 24 -87 24 -59 0 -66 2 -66 20 0 19 7 20 99 20 55 0 102 -3 104 -7z m299
-245 c-7 -7 -12 -20 -12 -30 0 -10 -4 -18 -9 -18 -5 0 -12 -7 -15 -16 -3 -8
-2 -12 4 -9 6 3 10 0 10 -8 0 -8 -7 -18 -16 -21 -8 -3 -12 -2 -9 4 3 6 2 10
-3 10 -16 0 -24 32 -11 44 9 8 10 8 5 -1 -17 -30 4 -10 23 22 11 19 26 35 33
35 9 0 9 -3 0 -12z m-527 -217 c-2 -5 6 -6 19 -4 13 3 27 0 30 -6 11 -17 87
-14 100 4 9 13 15 11 41 -11 17 -14 22 -23 13 -20 -11 3 -15 1 -12 -8 14 -37
-129 -46 -183 -11 -13 9 -27 14 -31 11 -5 -3 -8 6 -8 19 0 13 4 21 8 19 4 -3
8 2 8 11 0 9 5 13 10 10 6 -4 8 -10 5 -14z"/>
<path d="M1280 1563 c0 -2 17 -20 38 -42 54 -56 76 -124 70 -222 -4 -73 -8
-85 -44 -136 -56 -82 -116 -115 -213 -121 -64 -4 -86 -1 -129 18 -63 27 -118
87 -133 144 -13 49 -5 130 16 162 20 30 9 31 -18 2 -93 -106 -86 -292 14 -369
77 -59 204 -77 304 -42 58 21 165 119 165 152 0 15 4 19 17 14 9 -4 14 -2 11
3 -3 5 -2 18 3 29 6 15 8 9 8 -22 1 -31 -2 -41 -12 -37 -9 3 -18 -8 -25 -34
-6 -21 -25 -51 -42 -67 -16 -16 -30 -32 -30 -37 0 -13 317 -10 364 4 100 28
151 129 112 223 -19 46 -106 99 -106 65 0 -5 6 -10 13 -10 26 0 68 -57 74 -99
6 -47 -13 -105 -33 -97 -7 3 -16 0 -20 -6 -4 -6 -3 -8 4 -4 6 3 13 2 16 -3 3
-5 -11 -17 -32 -27 -29 -15 -68 -20 -187 -24 l-150 -5 25 50 c25 50 25 50 45
32 17 -16 32 -18 100 -13 120 7 123 8 118 26 -3 10 1 8 12 -5 17 -20 17 -20
11 2 -4 12 -3 24 2 27 5 3 10 26 10 51 1 27 -3 43 -8 40 -6 -3 -10 0 -10 8 0
24 -60 42 -137 42 -42 0 -73 4 -73 10 0 6 -4 4 -8 -3 -6 -8 -9 -2 -9 18 0 17
4 26 7 19 5 -8 9 -8 11 -1 2 6 38 12 82 14 42 2 73 4 67 6 -6 2 1 13 15 24 36
28 35 89 -1 123 -39 36 -132 44 -201 18 -11 -4 -14 -3 -9 6 9 13 -12 43 -24
36 -5 -3 -12 0 -16 7 -4 7 -4 10 1 6 4 -4 13 -4 19 1 6 5 61 11 121 12 99 3
115 1 158 -20 30 -14 46 -28 43 -36 -2 -8 2 -16 10 -19 15 -6 20 -70 8 -101
-6 -13 -9 -14 -16 -3 -7 9 -8 8 -4 -5 4 -13 -4 -26 -24 -44 -17 -13 -30 -30
-29 -36 0 -8 2 -8 6 1 2 6 13 12 23 12 10 0 29 13 43 30 77 90 16 229 -108
244 -44 6 -315 13 -315 9z m306 -138 c16 -22 12 -71 -8 -91 -7 -7 -44 -15 -85
-17 l-71 -4 -4 69 -3 70 78 -4 c64 -3 81 -7 93 -23z m-752 -221 c-4 -17 -3
-25 3 -21 11 7 48 -61 44 -83 -1 -11 0 -12 7 -2 7 10 12 8 25 -6 19 -20 12
-32 -25 -45 -14 -5 -18 -1 -18 16 0 18 -2 19 -10 7 -8 -11 -10 -4 -8 27 1 23
-1 46 -5 49 -4 4 -7 -6 -8 -22 0 -25 -2 -26 -9 -9 -10 24 -12 77 -4 99 10 26
15 18 8 -10z m782 -19 c19 -26 17 -69 -4 -95 -15 -19 -28 -22 -82 -22 -35 0
-74 -4 -87 -9 -23 -8 -23 -8 -23 72 l0 81 91 -4 c75 -3 94 -8 105 -23z m-627
-147 c35 -18 65 -23 126 -24 44 -1 85 2 90 6 6 4 21 11 35 15 17 4 11 -3 -20
-24 -25 -17 -53 -31 -62 -31 -9 0 -20 -5 -24 -11 -4 -8 -9 -7 -15 2 -7 12 -12
12 -29 1 -30 -18 -150 5 -150 29 0 5 -6 6 -13 3 -8 -3 -20 2 -27 11 -11 13
-10 18 6 30 25 19 30 19 83 -7z"/>
<path d="M480 766 c0 -89 1 -96 20 -96 15 0 20 7 20 28 0 25 3 28 36 29 45 1
65 20 66 62 1 45 -22 63 -86 69 l-56 4 0 -96z m95 23 c0 -19 -6 -25 -27 -27
-26 -3 -28 -1 -28 31 0 34 1 35 28 28 20 -6 27 -14 27 -32z"/>
<path d="M725 836 c-64 -65 -22 -166 69 -166 32 0 82 43 89 76 17 89 -95 152
-158 90z m101 -31 c28 -28 26 -58 -7 -87 -23 -20 -54 -13 -74 15 -20 28 -19
39 6 71 26 33 43 33 75 1z"/>
<path d="M970 766 c0 -91 1 -96 21 -96 18 0 21 5 17 30 -4 24 -1 30 14 30 11
0 27 -13 36 -30 13 -22 24 -30 45 -30 l28 0 -25 33 c-23 30 -24 35 -9 49 20
21 20 65 0 86 -9 9 -40 17 -71 20 l-56 4 0 -96z m103 42 c8 -25 -5 -38 -38
-38 -29 0 -32 2 -27 25 3 20 10 25 32 25 16 0 30 -6 33 -12z"/>
<path d="M1190 840 c0 -15 7 -20 28 -20 l27 0 -3 -75 c-3 -70 -2 -75 17 -75
19 0 21 6 21 74 0 74 0 75 27 78 17 2 29 10 31 21 3 15 -6 17 -72 17 -69 0
-76 -2 -76 -20z"/>
<path d="M1436 787 c-16 -39 -33 -76 -38 -81 -15 -18 -8 -36 13 -36 12 0 23 8
26 20 4 16 14 20 48 20 35 0 45 -4 50 -20 3 -11 15 -20 26 -20 20 0 25 19 10
36 -4 5 -21 42 -36 82 -23 58 -32 72 -49 72 -17 0 -27 -15 -50 -73z m74 -35
c0 -9 -6 -12 -16 -8 -9 3 -20 6 -25 6 -5 0 -3 12 3 26 11 24 13 25 25 8 7 -10
13 -24 13 -32z"/>
<path d="M1650 765 l0 -95 60 0 c53 0 60 2 60 20 0 17 -7 20 -40 20 l-40 0 0
75 c0 68 -2 75 -20 75 -19 0 -20 -7 -20 -95z"/>
</g>
</svg>
